<mxfile host="app.diagrams.net" modified="2021-05-17T16:21:19.388Z" agent="5.0 (Macintosh; Intel Mac OS X 10_15_6) AppleWebKit/537.36 (KHTML, like Gecko) Chrome/90.0.4430.212 Safari/537.36" etag="q2RQHKzfnkbNvsN6BZKn" version="14.6.13" type="github">
  <diagram id="PYBOyL9G-ITzW6F-4JpW" name="Page-1">
    <mxGraphModel dx="1298" dy="714" grid="1" gridSize="10" guides="1" tooltips="1" connect="1" arrows="1" fold="1" page="1" pageScale="1" pageWidth="827" pageHeight="1169" math="0" shadow="0">
      <root>
        <mxCell id="0" />
        <mxCell id="1" parent="0" />
        <mxCell id="Gb_UQIzozIhkWaiDpr8t-22" value="" style="edgeStyle=orthogonalEdgeStyle;rounded=0;orthogonalLoop=1;jettySize=auto;html=1;" edge="1" parent="1" source="Gb_UQIzozIhkWaiDpr8t-23" target="Gb_UQIzozIhkWaiDpr8t-25">
          <mxGeometry relative="1" as="geometry" />
        </mxCell>
        <mxCell id="Gb_UQIzozIhkWaiDpr8t-23" value="start" style="rounded=1;whiteSpace=wrap;html=1;" vertex="1" parent="1">
          <mxGeometry x="258.75" y="80" width="80" height="40" as="geometry" />
        </mxCell>
        <mxCell id="Gb_UQIzozIhkWaiDpr8t-60" value="" style="edgeStyle=orthogonalEdgeStyle;rounded=0;orthogonalLoop=1;jettySize=auto;html=1;" edge="1" parent="1" source="Gb_UQIzozIhkWaiDpr8t-25" target="Gb_UQIzozIhkWaiDpr8t-58">
          <mxGeometry relative="1" as="geometry" />
        </mxCell>
        <mxCell id="Gb_UQIzozIhkWaiDpr8t-25" value="사용자가 음성으로 명령" style="rounded=0;whiteSpace=wrap;html=1;" vertex="1" parent="1">
          <mxGeometry x="240" y="140" width="117.5" height="40" as="geometry" />
        </mxCell>
        <mxCell id="Gb_UQIzozIhkWaiDpr8t-27" value="MagicMirror에서 &lt;br&gt;음성으로 안내" style="whiteSpace=wrap;html=1;rounded=0;" vertex="1" parent="1">
          <mxGeometry x="241.25" y="470" width="120" height="40" as="geometry" />
        </mxCell>
        <mxCell id="Gb_UQIzozIhkWaiDpr8t-56" value="" style="edgeStyle=orthogonalEdgeStyle;rounded=0;orthogonalLoop=1;jettySize=auto;html=1;" edge="1" parent="1" source="Gb_UQIzozIhkWaiDpr8t-28" target="Gb_UQIzozIhkWaiDpr8t-27">
          <mxGeometry relative="1" as="geometry" />
        </mxCell>
        <mxCell id="Gb_UQIzozIhkWaiDpr8t-28" value="TTS Process" style="whiteSpace=wrap;html=1;rounded=0;" vertex="1" parent="1">
          <mxGeometry x="241.25" y="410" width="120" height="40" as="geometry" />
        </mxCell>
        <mxCell id="Gb_UQIzozIhkWaiDpr8t-39" value="" style="edgeStyle=orthogonalEdgeStyle;rounded=0;orthogonalLoop=1;jettySize=auto;html=1;" edge="1" parent="1" source="Gb_UQIzozIhkWaiDpr8t-36">
          <mxGeometry relative="1" as="geometry">
            <mxPoint x="301" y="350" as="targetPoint" />
          </mxGeometry>
        </mxCell>
        <mxCell id="Gb_UQIzozIhkWaiDpr8t-52" value="" style="edgeStyle=orthogonalEdgeStyle;rounded=0;orthogonalLoop=1;jettySize=auto;html=1;entryX=0;entryY=0.5;entryDx=0;entryDy=0;" edge="1" parent="1" source="Gb_UQIzozIhkWaiDpr8t-36" target="Gb_UQIzozIhkWaiDpr8t-44">
          <mxGeometry relative="1" as="geometry" />
        </mxCell>
        <mxCell id="Gb_UQIzozIhkWaiDpr8t-36" value="STT Process" style="rhombus;whiteSpace=wrap;html=1;" vertex="1" parent="1">
          <mxGeometry x="240" y="260" width="121.25" height="60" as="geometry" />
        </mxCell>
        <mxCell id="Gb_UQIzozIhkWaiDpr8t-44" value="명령어 오류 출력" style="whiteSpace=wrap;html=1;" vertex="1" parent="1">
          <mxGeometry x="422.5" y="270" width="100" height="40" as="geometry" />
        </mxCell>
        <mxCell id="Gb_UQIzozIhkWaiDpr8t-48" value="yes" style="text;html=1;strokeColor=none;fillColor=none;align=center;verticalAlign=middle;whiteSpace=wrap;rounded=0;" vertex="1" parent="1">
          <mxGeometry x="302.5" y="320" width="40" height="20" as="geometry" />
        </mxCell>
        <mxCell id="Gb_UQIzozIhkWaiDpr8t-49" value="no" style="text;html=1;strokeColor=none;fillColor=none;align=center;verticalAlign=middle;whiteSpace=wrap;rounded=0;" vertex="1" parent="1">
          <mxGeometry x="361.25" y="270" width="40" height="20" as="geometry" />
        </mxCell>
        <mxCell id="Gb_UQIzozIhkWaiDpr8t-55" value="" style="edgeStyle=orthogonalEdgeStyle;rounded=0;orthogonalLoop=1;jettySize=auto;html=1;" edge="1" parent="1" source="Gb_UQIzozIhkWaiDpr8t-54" target="Gb_UQIzozIhkWaiDpr8t-28">
          <mxGeometry relative="1" as="geometry" />
        </mxCell>
        <mxCell id="Gb_UQIzozIhkWaiDpr8t-54" value="코로나 관련 기사&lt;br&gt;Top 5 출력" style="whiteSpace=wrap;html=1;rounded=0;" vertex="1" parent="1">
          <mxGeometry x="241.25" y="350" width="120" height="40" as="geometry" />
        </mxCell>
        <mxCell id="Gb_UQIzozIhkWaiDpr8t-62" value="" style="edgeStyle=orthogonalEdgeStyle;rounded=0;orthogonalLoop=1;jettySize=auto;html=1;entryX=0.5;entryY=0;entryDx=0;entryDy=0;" edge="1" parent="1" source="Gb_UQIzozIhkWaiDpr8t-58" target="Gb_UQIzozIhkWaiDpr8t-36">
          <mxGeometry relative="1" as="geometry">
            <Array as="points">
              <mxPoint x="301" y="250" />
              <mxPoint x="301" y="250" />
            </Array>
          </mxGeometry>
        </mxCell>
        <mxCell id="Gb_UQIzozIhkWaiDpr8t-58" value="구글 어시스턴스 작동" style="rounded=0;whiteSpace=wrap;html=1;" vertex="1" parent="1">
          <mxGeometry x="240" y="200" width="117.5" height="40" as="geometry" />
        </mxCell>
      </root>
    </mxGraphModel>
  </diagram>
</mxfile>
